# xmcd
#
# Track frame offsets:
#	182
#	25077
#	43247
#
# Disc length: 787 seconds
#
# Revision: 3
# Processed by: cddbd v1.4b42PL1 Copyright (c) Steve Scherf et al.
# Submitted via: EasyCDDAExtractor 4.5.0.2
#
DISCID=1e031103
DTITLE=Counting Crows - Round Here
DYEAR=1994
DGENRE=Blues
TTITLE0=Round Here (LP Version)
TTITLE1=Ghost Train (LP Version)
TTITLE2=The Ghost In You (Live - Previously Unreleased)
EXTD=
EXTT0=
EXTT1=
EXTT2=
PLAYORDER=
